<svg width="100" height="100" viewBox="0 0 100 100" fill="none" xmlns="http://www.w3.org/2000/svg" class="cell n6">
    <rect width="100" height="100" fill="white"/>
    <rect class="background" width="100" height="100" rx="10"/>
    <path class="p1" d="M62.7031 14.7031V22.0625H61.1094C54.3594 22.1875 48.9844 24.1875 44.9844 28.0625C40.9844 31.9375 38.6719 37.3906 38.0469 44.4219L29.1875 53.7031C29.1875 41.1406 31.8594 31.5469 37.2031 24.9219C42.5781 18.2656 50.5625 14.8594 61.1562 14.7031H62.7031Z" fill="white"/>
    <path class="p2" fill-rule="evenodd" clip-rule="evenodd" d="M38.0469 44.4219C41.6406 40.2969 46.5469 38.2344 52.7656 38.2344C58.7031 38.2344 63.4375 40.3281 66.9688 44.5156C70.5312 48.7031 72.3125 54.1094 72.3125 60.7344C72.3125 67.7656 70.3906 73.3906 66.5469 77.6094C62.7344 81.8281 57.6094 83.9375 51.1719 83.9375C44.6406 83.9375 39.3438 81.4375 35.2812 76.4375C31.2188 71.4062 29.1875 64.9375 29.1875 57.0312V53.7031L38.0469 44.4219ZM43.1094 48.125C45.6094 46.3438 48.3438 45.4531 51.3125 45.4531C55.0625 45.4531 58.0625 46.9062 60.3125 49.8125C62.5938 52.6875 63.7344 56.4688 63.7344 61.1562C63.7344 65.8125 62.6094 69.5781 60.3594 72.4531C58.1406 75.3281 55.0781 76.7656 51.1719 76.7656C47.3906 76.7656 44.2344 75.0469 41.7031 71.6094C39.1719 68.1719 37.9062 63.6406 37.9062 58.0156V54.8281C38.875 52.1406 40.6094 49.9062 43.1094 48.125Z" fill="white"/>
</svg>