<svg width="100" height="100" viewBox="0 0 100 100" fill="none" xmlns="http://www.w3.org/2000/svg" class="cell n3">
    <rect width="100" height="100" fill="white"/>
    <rect class="background" width="100" height="100" rx="10"/>
    <path class="p1" d="M49.0156 20.9375C45.2656 20.9375 42.2656 22.0156 40.0156 24.1719C37.7969 26.2969 36.6875 29.125 36.6875 32.6562H28.0156C28.0156 27.25 29.9844 22.7656 33.9219 19.2031C37.8906 15.6094 42.9219 13.8125 49.0156 13.8125C55.4531 13.8125 60.5 15.5156 64.1562 18.9219C67.7177 22.2398 69.5446 26.818 69.6369 32.6562H60.9671C60.8743 24.8438 56.8904 20.9375 49.0156 20.9375Z" fill="white"/>
    <path class="p2" d="M41.2812 44.6562H47.7969C51.8906 44.5938 55.1094 43.5156 57.4531 41.4219C59.7969 39.3281 60.9688 36.5 60.9688 32.9375C60.9688 32.8432 60.9682 32.7494 60.9671 32.6562H69.6369C69.6394 32.8116 69.6406 32.9679 69.6406 33.125C69.6406 36.0938 68.6719 38.9688 66.7344 41.75C64.8281 44.5312 62.2188 46.6094 58.9062 47.9844C62.6562 49.1719 65.5469 51.1406 67.5781 53.8906C69.6406 56.6406 70.6719 60 70.6719 63.9688C70.6719 64.3166 70.6654 64.6603 70.6525 65H61.9838C61.9946 64.7234 62 64.4421 62 64.1562C62 60.1875 60.7812 57.1406 58.3438 55.0156C55.9062 52.8906 52.3906 51.7969 47.7969 51.7344H41.2812V44.6562Z" fill="white"/>
    <path class="p3" d="M64.6719 78.5469C60.6719 82.1406 55.4688 83.9375 49.0625 83.9375C42.6562 83.9375 37.4375 82.2031 33.4062 78.7344C29.4062 75.2656 27.4062 70.6875 27.4062 65H36.125C36.125 68.5938 37.2969 71.4688 39.6406 73.625C41.9844 75.7812 45.125 76.8594 49.0625 76.8594C53.25 76.8594 56.4531 75.7656 58.6719 73.5781C60.7357 71.5434 61.8396 68.684 61.9838 65H70.6525C70.4383 70.6416 68.4447 75.1572 64.6719 78.5469Z" fill="white"/>
</svg>
