<svg width="100" height="100" viewBox="0 0 100 100" fill="none" xmlns="http://www.w3.org/2000/svg" class="cell n2">
    <rect width="100" height="100" fill="white"/>
    <rect class="background" width="100" height="100" rx="10"/>
    <path class="p1" d="M61.5312 33.125C61.5312 29.5625 60.4531 26.6406 58.2969 24.3594C56.1406 22.0781 53.2656 20.9375 49.6719 20.9375C45.3594 20.9375 42 22.1719 39.5938 24.6406C37.2188 27.0781 36.0312 30.4844 36.0312 34.8594H27.3594C27.3594 28.5781 29.375 23.5 33.4062 19.625C37.4688 15.75 42.8906 13.8125 49.6719 13.8125C56.0156 13.8125 61.0312 15.4844 64.7188 18.8281C68.4062 22.1406 70.25 26.5625 70.25 32.0938C70.25 32.9927 70.1734 33.9146 70.0201 34.8594H61.4345C61.499 34.285 61.5312 33.7069 61.5312 33.125Z" fill="white"/>
    <path class="p2" d="M28.6719 83V76.7656L52.2969 50.5156C55.7969 46.5469 58.2031 43.3281 59.5156 40.8594C60.565 38.907 61.2047 36.907 61.4345 34.8594H70.0201C69.0277 40.9762 64.8231 48.0543 57.4062 56.0938L39.125 75.9219L28.6719 83Z" fill="white"/>
    <path class="p3" d="M73.3906 83H28.6719L39.125 75.9219H73.3906V83Z" fill="white"/>
</svg>