<svg width="100" height="100" viewBox="0 0 100 100" fill="none" xmlns="http://www.w3.org/2000/svg" class="cell n5">
    <rect width="100" height="100" fill="white"/>
    <rect class="background" width="100" height="100" rx="10" fill="#2D5BB6"/>
    <path class="p1" d="M36.125 14.75H71.0938V22.7656H43.4844L36.125 14.75Z" fill="white"/>
    <path class="p2" d="M32.6562 48.7812L36.125 14.75L43.4844 22.7656L41.4219 41.375L39.5938 50.5625L32.6562 48.7812Z" fill="white"/>
    <path class="p3" d="M41.4219 41.375C44.7656 39.4062 48.5625 38.4219 52.8125 38.4219C59.0312 38.4219 63.9688 40.4844 67.625 44.6094C71.2812 48.7031 73.1094 54.25 73.1094 61.25C73.1094 68.2812 71.2031 73.8281 67.3906 77.8906C63.6094 81.9219 58.3125 83.9375 51.5 83.9375C45.4688 83.9375 40.5469 82.2656 36.7344 78.9219C32.9219 75.5781 30.75 70.9531 30.2188 65.0469H38.4219C38.9531 68.9531 40.3438 71.9062 42.5938 73.9062C44.8438 75.875 47.8125 76.8594 51.5 76.8594C55.5312 76.8594 58.6875 75.4844 60.9688 72.7344C63.2812 69.9844 64.4375 66.1875 64.4375 61.3438C64.4375 56.7812 63.1875 53.125 60.6875 50.375C58.2188 47.5938 54.9219 46.2031 50.7969 46.2031C47.0156 46.2031 44.0469 47.0312 41.8906 48.6875L39.5938 50.5625L41.4219 41.375Z" fill="white"/>
    <path d="M11 0H89" stroke="black"/>
    <path d="M100 11V89" stroke="black"/>
    <path d="M11 100H89" stroke="black"/>
    <path d="M0 11V89" stroke="black"/>
</svg>