<svg width="100" height="100" viewBox="0 0 100 100" fill="none" xmlns="http://www.w3.org/2000/svg" class="cell bomb">
    <rect width="100" height="100" fill="white"/>
    <rect class="background" width="100" height="100" rx="10"/>
    <path class="p1" d="M75 50C75 63.8071 63.8071 75 50 75C36.1929 75 25 63.8071 25 50C25 36.1929 36.1929 25 50 25C63.8071 25 75 36.1929 75 50Z" fill="white"/>
    <path class="p2" d="M47 13C47 11.3431 48.3431 10 50 10C51.6569 10 53 11.3431 53 13V27C53 28.6569 51.6569 30 50 30C48.3431 30 47 28.6569 47 27V13Z" fill="white"/>
    <path class="p3" d="M21.7157 25.9584C20.5442 24.7868 20.5442 22.8873 21.7157 21.7157C22.8873 20.5442 24.7868 20.5442 25.9584 21.7157L35.8579 31.6152C37.0294 32.7868 37.0294 34.6863 35.8579 35.8579C34.6863 37.0294 32.7868 37.0294 31.6152 35.8579L21.7157 25.9584Z" fill="white"/>
    <path class="p4" d="M67.6777 36.565C66.5061 37.7365 64.6066 37.7365 63.435 36.565C62.2635 35.3934 62.2635 33.4939 63.435 32.3223L74.0416 21.7157C75.2132 20.5442 77.1127 20.5442 78.2843 21.7157C79.4558 22.8873 79.4558 24.7868 78.2843 25.9584L67.6777 36.565Z" fill="white"/>
    <path class="p5" d="M13 53C11.3431 53 10 51.6569 10 50C10 48.3431 11.3431 47 13 47H27C28.6569 47 30 48.3431 30 50C30 51.6569 28.6569 53 27 53H13Z" fill="white"/>
    <path class="p6" d="M73 53C71.3431 53 70 51.6569 70 50C70 48.3431 71.3431 47 73 47H87C88.6569 47 90 48.3431 90 50C90 51.6569 88.6569 53 87 53H73Z" fill="white"/>
    <path class="p7" d="M25.9584 78.2843C24.7868 79.4558 22.8873 79.4558 21.7157 78.2843C20.5442 77.1127 20.5442 75.2132 21.7157 74.0416L31.6152 64.1421C32.7868 62.9706 34.6863 62.9706 35.8579 64.1421C37.0294 65.3137 37.0294 67.2132 35.8579 68.3848L25.9584 78.2843Z" fill="white"/>
    <path class="p8" d="M64.1421 68.3848C62.9706 67.2132 62.9706 65.3137 64.1421 64.1421C65.3137 62.9706 67.2132 62.9706 68.3848 64.1421L78.2843 74.0416C79.4558 75.2132 79.4558 77.1127 78.2843 78.2843C77.1127 79.4558 75.2132 79.4558 74.0416 78.2843L64.1421 68.3848Z" fill="white"/>
    <path class="p9" d="M47 73C47 71.3431 48.3431 70 50 70C51.6569 70 53 71.3431 53 73V87C53 88.6569 51.6569 90 50 90C48.3431 90 47 88.6569 47 87V73Z" fill="white"/>
</svg>