<svg width="100" height="100" viewBox="0 0 100 100" fill="none" xmlns="http://www.w3.org/2000/svg" class="cell n8">
    <rect width="100" height="100" fill="white"/>
    <rect class="background" width="100" height="100" rx="10" fill="#2D5BB6"/>
    <path class="p1" fill-rule="evenodd" clip-rule="evenodd" d="M70.0625 32.5625C70.0625 35.9688 69.1562 39 67.3438 41.6562C65.5625 44.3125 63.1406 46.3906 60.0781 47.8906L39.6406 47.8438C36.6094 46.3438 34.2188 44.2656 32.4688 41.6094C30.7188 38.9531 29.8438 35.9375 29.8438 32.5625C29.8438 26.8125 31.6875 22.25 35.375 18.875C39.0625 15.5 43.9219 13.8125 49.9531 13.8125C55.9531 13.8125 60.7969 15.5 64.4844 18.875C68.2031 22.25 70.0625 26.8125 70.0625 32.5625ZM41.6562 24.125C43.7812 22 46.5469 20.9375 49.9531 20.9375C53.2656 20.9375 56 22.0312 58.1562 24.2188C60.3125 26.4062 61.3906 29.2344 61.3906 32.7031C61.3906 36.1719 60.3438 38.9844 58.25 41.1406C56.1875 43.2656 53.4219 44.3281 49.9531 44.3281C46.4844 44.3281 43.7031 43.2656 41.6094 41.1406C39.5469 38.9844 38.5156 36.1719 38.5156 32.7031C38.5156 29.0781 39.5625 26.2188 41.6562 24.125Z" fill="white"/>
    <path class="p2" fill-rule="evenodd" clip-rule="evenodd" d="M60.0781 47.8906C63.6406 49.4219 66.4531 51.6562 68.5156 54.5938C70.6094 57.5312 71.6562 60.8594 71.6562 64.5781C71.6562 70.4844 69.6562 75.1875 65.6562 78.6875C61.6875 82.1875 56.4531 83.9375 49.9531 83.9375C43.3906 83.9375 38.125 82.1875 34.1562 78.6875C30.2188 75.1562 28.25 70.4531 28.25 64.5781C28.25 60.8906 29.25 57.5625 31.25 54.5938C33.2812 51.625 36.0781 49.375 39.6406 47.8438L60.0781 47.8906ZM59.3281 55.0625C61.7656 57.4688 62.9844 60.5781 62.9844 64.3906C62.9844 68.2344 61.8281 71.2812 59.5156 73.5312C57.2031 75.75 54.0156 76.8594 49.9531 76.8594C45.8594 76.8594 42.6562 75.75 40.3438 73.5312C38.0625 71.3125 36.9219 68.2656 36.9219 64.3906C36.9219 60.5156 38.0938 57.3906 40.4375 55.0156C42.8125 52.6406 45.9531 51.4531 49.8594 51.4531C53.7656 51.4531 56.9219 52.6562 59.3281 55.0625Z" fill="white"/>
</svg>